<svg width="1500" height="1050" xmlns="http://www.w3.org/2000/svg" fill="none">
 <defs>
  <clipPath id="clip0_0_290">
   <rect id="svg_1" fill="white" height="1500" width="1500"/>
  </clipPath>
  <clipPath id="clip1_0_290">
   <rect id="svg_2" x="250" y="247.4999" fill="white" height="1000" width="1000"/>
  </clipPath>
  <clipPath id="clip2_0_290">
   <rect id="svg_3" x="250" y="247.4999" fill="white" height="1000" width="1000"/>
  </clipPath>
  <clipPath id="clip3_0_290">
   <rect id="svg_4" x="250" y="250" fill="white" height="1000" width="1000"/>
  </clipPath>
  <clipPath id="clip4_0_290">
   <rect id="svg_5" x="250" y="250" fill="white" height="1000" width="1000"/>
  </clipPath>
  <clipPath id="clip5_0_290">
   <rect id="svg_6" x="250" y="250" fill="white" height="1000" width="1000"/>
  </clipPath>
  <clipPath id="clip6_0_290">
   <rect id="svg_7" x="250" y="250" fill="white" height="1000" width="1000"/>
  </clipPath>
  <clipPath id="clip7_0_290">
   <rect id="svg_8" x="250" y="250" fill="white" height="1000" width="1000"/>
  </clipPath>
  <clipPath id="clip8_0_290">
   <rect id="svg_9" x="566.15198" y="566.15198" fill="white" height="367.695" width="367.696"/>
  </clipPath>
  <clipPath id="clip9_0_290">
   <rect id="svg_10" x="566.15198" y="566.15198" fill="white" height="367.695" width="367.696"/>
  </clipPath>
  <clipPath id="clip10_0_290">
   <rect id="svg_11" x="250" y="250" fill="white" height="1000" width="1000"/>
  </clipPath>
  <clipPath id="clip11_0_290">
   <rect id="svg_12" x="250" y="250" fill="white" height="1000" width="1000"/>
  </clipPath>
  <clipPath id="clip12_0_290">
   <rect id="svg_13" x="250" y="250" fill="white" height="1000" width="1000"/>
  </clipPath>
  <clipPath id="clip13_0_290">
   <rect id="svg_14" x="250" y="250" fill="white" height="1000" width="1000"/>
  </clipPath>
  <clipPath id="clip14_0_290">
   <rect id="svg_15" x="566.15198" y="566.15198" fill="white" height="367.695" width="367.696"/>
  </clipPath>
  <clipPath id="clip15_0_290">
   <rect id="svg_16" x="566.15198" y="566.15198" fill="white" height="367.695" width="367.696"/>
  </clipPath>
 </defs>
 <g>
  <title>Layer 1</title>
  <g id="svg_17" clip-path="url(#clip0_0_290)">
   <path id="svg_18" fill="white" d="m1500,-2.5001l-1500,0l0,1500l1500,0l0,-1500z"/>
   <g id="svg_19" clip-path="url(#clip1_0_290)">
    <g id="svg_20" clip-path="url(#clip2_0_290)">
     <mask height="1000" width="1000" y="250" x="250" maskUnits="userSpaceOnUse" id="mask0_0_290">
      <g id="svg_21" clip-path="url(#clip3_0_290)">
       <g id="svg_22" clip-path="url(#clip4_0_290)">
        <g id="svg_23" clip-path="url(#clip5_0_290)">
         <g id="svg_24" clip-path="url(#clip6_0_290)">
          <g id="svg_25" clip-path="url(#clip7_0_290)">
           <g id="svg_26" clip-path="url(#clip8_0_290)">
            <g id="svg_27" clip-path="url(#clip9_0_290)">
             <path id="svg_28" fill="black" d="m926.187,933.848l-352.374,0c-2.032,0 -3.98,-0.807 -5.417,-2.244c-1.437,-1.437 -2.244,-3.385 -2.244,-5.417c-0.036,-19.216 6.369,-37.89 18.191,-53.039c11.822,-15.15 28.38,-25.9 47.029,-30.535l58.694,-14.677l3.386,-13.528c-40.738,-6.818 -61.375,-19.013 -62.294,-19.549c-1.075,-0.647 -1.975,-1.547 -2.62,-2.622c-0.646,-1.076 -1.018,-2.293 -1.083,-3.546c-0.065,-1.252 0.179,-2.502 0.71,-3.638c0.53,-1.137 1.332,-2.125 2.334,-2.88c0.199,-0.153 27.577,-22.766 27.577,-101.116c0,-85.964 63.137,-114.905 91.924,-114.905c22.184,0 30.442,4.688 41.442,15.321l4.52,0c30.503,0 45.962,33.506 45.962,99.584c0,78.35 27.378,100.963 27.654,101.178c0.976,0.779 1.751,1.781 2.261,2.922c0.509,1.141 0.737,2.388 0.665,3.635c-0.077,1.241 -0.455,2.444 -1.1,3.507c-0.646,1.062 -1.541,1.951 -2.608,2.59c-0.919,0.552 -21.77,12.671 -62.247,19.488l3.385,13.559l58.694,14.677c18.644,4.633 35.198,15.379 47.02,30.522c11.822,15.144 18.229,33.811 18.2,53.022c0.004,1.008 -0.191,2.008 -0.575,2.941c-0.383,0.933 -0.946,1.781 -1.658,2.495c-0.712,0.715 -1.558,1.282 -2.489,1.669c-0.931,0.387 -1.93,0.586 -2.939,0.586zm-344.316,-15.321l336.242,0c-1.537,-14.405 -7.466,-27.989 -16.984,-38.91c-9.518,-10.921 -22.164,-18.652 -36.224,-22.143l-63.152,-15.78c-1.345,-0.339 -2.573,-1.037 -3.552,-2.019c-0.98,-0.982 -1.674,-2.212 -2.009,-3.558l-6.542,-26.167c-0.26,-1.041 -0.298,-2.125 -0.112,-3.182c0.186,-1.056 0.592,-2.062 1.192,-2.951c0.599,-0.89 1.379,-1.644 2.288,-2.213c0.909,-0.569 1.928,-0.941 2.99,-1.092c27.301,-3.83 46.192,-10.403 56.319,-14.677c-9.974,-13.329 -25.724,-44.001 -25.724,-104.778c0,-31.468 -3.983,-84.263 -30.641,-84.263l-7.66,0c-1.007,0.001 -2.004,-0.195 -2.935,-0.579c-0.93,-0.384 -1.776,-0.947 -2.489,-1.658c-9.928,-9.943 -13.972,-13.084 -32.878,-13.084c-15.198,0 -76.603,17.726 -76.603,99.584c0,60.838 -15.78,91.495 -25.754,104.809c10.066,4.274 28.879,10.862 56.334,14.677c1.063,0.148 2.084,0.519 2.995,1.087c0.911,0.569 1.692,1.322 2.293,2.212c0.601,0.89 1.008,1.896 1.195,2.954c0.187,1.057 0.15,2.142 -0.11,3.184l-6.542,26.137c-0.336,1.348 -1.033,2.579 -2.015,3.561c-0.983,0.983 -2.214,1.68 -3.561,2.016l-63.137,15.78c-14.057,3.499 -26.701,11.231 -36.22,22.15c-9.519,10.92 -15.455,24.5 -17.004,38.903z"/>
            </g>
           </g>
           <path id="svg_29" fill="white" d="m352.961,636.743c-0.643,2.275 -1.965,3.971 -3.968,5.093c-1.975,1.103 -4.097,1.335 -6.375,0.693c-2.297,-0.65 -4.022,-1.968 -5.168,-3.954c-1.168,-2.018 -1.429,-4.161 -0.786,-6.436c0.643,-2.275 1.997,-3.985 4.057,-5.143c2.033,-1.135 4.197,-1.382 6.493,-0.732c2.275,0.643 3.957,1.975 5.05,3.997c1.107,2.05 1.34,4.21 0.697,6.482z"/>
           <path id="svg_30" fill="white" d="m382.15,518.339l-6.186,11.39c-3.06,-1.665 -6.26,-2.275 -9.6,-1.833c-3.328,0.475 -6.775,1.522 -10.343,3.143c-3.567,1.622 -7.292,3.4 -11.171,5.34c-3.857,1.95 -7.821,3.6 -11.893,4.946c-4.071,1.346 -8.228,1.996 -12.468,1.946c-4.25,-0.025 -8.535,-1.214 -12.853,-3.557l6.185,-11.389c2.979,1.618 6.136,2.207 9.472,1.761c3.328,-0.475 6.796,-1.511 10.407,-3.107c3.611,-1.597 7.357,-3.365 11.232,-5.304c3.857,-1.95 7.8,-3.611 11.832,-4.982c4.029,-1.368 8.165,-2.029 12.404,-1.982c4.25,0.025 8.578,1.235 12.982,3.628zm-68.111,10.104l-6.185,11.389c-4.572,-2.482 -7.915,-5.657 -10.025,-9.521c-2.122,-3.843 -3.036,-8.115 -2.74,-12.811c0.265,-4.689 1.715,-9.457 4.347,-14.304l9.753,5.297c-2.268,4.175 -2.964,8.032 -2.089,11.575c0.893,3.553 3.207,6.346 6.939,8.375zm61.704,1.164l6.186,-11.386c4.489,2.44 7.81,5.6 9.964,9.486c2.164,3.864 3.111,8.125 2.832,12.782c-0.243,4.65 -1.704,9.436 -4.379,14.368l-9.878,-5.368c2.268,-4.175 2.986,-8.021 2.153,-11.539c-0.853,-3.532 -3.146,-6.311 -6.878,-8.343zm-45.532,-38.664l-3.636,11.796c-3.982,-1.621 -7.464,-1.814 -10.443,-0.578c-3,1.221 -5.314,3.332 -6.943,6.332l-9.753,-5.297c2.128,-3.921 4.846,-7.025 8.15,-9.303c3.293,-2.314 6.882,-3.772 10.771,-4.375c3.875,-0.586 7.829,-0.107 11.854,1.425zm21.853,75.957l3.532,-11.525c5.508,2.364 10.454,3.029 14.847,1.993c4.382,-1.014 7.721,-3.643 10.025,-7.879l9.878,5.368c-3.839,7.068 -9.142,11.657 -15.91,13.764c-6.736,2.1 -14.193,1.525 -22.372,-1.721z"/>
           <path id="svg_31" fill="white" d="m440.336,480.525c-1.54,1.793 -3.457,2.771 -5.747,2.943c-2.253,0.168 -4.278,-0.518 -6.068,-2.057c-1.81,-1.557 -2.817,-3.479 -3.025,-5.765c-0.207,-2.321 0.458,-4.375 2,-6.167c1.54,-1.793 3.49,-2.775 5.847,-2.95c2.321,-0.175 4.389,0.517 6.196,2.071c1.793,1.539 2.757,3.457 2.897,5.75c0.139,2.325 -0.561,4.382 -2.1,6.175z"/>
           <path id="svg_32" fill="white" d="m516.264,383.164l-10.36,7.732l-30.793,-41.26l10.36,-7.729l30.793,41.257zm-34.632,25.847l-10.386,7.753l-30.796,-41.26l10.389,-7.75l30.793,41.257zm3.925,-66.99l-10.361,7.729c-2.939,-3.939 -6.292,-6.175 -10.05,-6.704c-3.764,-0.496 -7.542,0.672 -11.328,3.497l-6.725,-9.011c4.475,-3.339 9.078,-5.375 13.807,-6.103c4.714,-0.747 9.221,-0.211 13.529,1.607c4.307,1.818 8.014,4.814 11.128,8.985zm-34.632,25.847l-10.389,7.75c-3.111,-4.172 -4.918,-8.586 -5.418,-13.243c-0.518,-4.646 0.271,-9.136 2.368,-13.471c2.064,-4.34 5.303,-8.158 9.721,-11.458l6.725,9.011c-3.807,2.839 -5.996,6.129 -6.575,9.868c-0.564,3.757 0.625,7.604 3.568,11.543zm54.893,22.914l10.361,-7.732c3.167,4.246 5,8.675 5.489,13.282c0.489,4.607 -0.279,9.082 -2.311,13.429c-2.014,4.364 -5.261,8.214 -9.736,11.553l-6.725,-9.007c3.786,-2.825 5.965,-6.136 6.533,-9.925c0.535,-3.793 -0.668,-7.661 -3.611,-11.6zm-34.657,25.868l10.385,-7.754c2.94,3.94 6.308,6.193 10.093,6.765c3.775,0.55 7.565,-0.597 11.372,-3.44l6.725,9.008c-4.418,3.296 -9.015,5.3 -13.79,6.003c-4.778,0.739 -9.31,0.218 -13.589,-1.564c-4.296,-1.768 -8.028,-4.775 -11.196,-9.018z"/>
           <path id="svg_33" fill="white" d="m588.536,374.357c-2.161,0.957 -4.311,1.022 -6.454,0.197c-2.111,-0.815 -3.643,-2.3 -4.6,-4.461c-0.968,-2.182 -1.053,-4.35 -0.257,-6.504c0.807,-2.185 2.289,-3.757 4.45,-4.714c2.161,-0.957 4.343,-1.011 6.546,-0.161c2.172,0.84 3.743,2.35 4.711,4.532c0.957,2.161 1.007,4.304 0.15,6.433c-0.871,2.16 -2.386,3.721 -4.546,4.678z"/>
           <path id="svg_34" fill="white" d="m655.032,261.75l-14.207,2.904l-2.25,-11.015l14.207,-2.903l2.25,11.014zm10.104,49.461l-14.204,2.903l-2.25,-11.014l14.204,-2.904l2.25,11.015zm22.107,-31.665l-12.661,2.586l-1.707,-8.35l12.664,-2.586l1.704,8.35zm-1.704,-8.35l-12.664,2.586c-0.989,-4.839 -3.071,-8.289 -6.243,-10.343c-3.196,-2.05 -7.111,-2.603 -11.739,-1.657l-2.25,-11.018c5.471,-1.118 10.5,-1.01 15.082,0.318c4.589,1.354 8.443,3.757 11.561,7.214c3.121,3.479 5.207,7.779 6.253,12.9zm-10.985,10.797l12.66,-2.589c1.061,5.192 0.832,9.975 -0.685,14.357c-1.518,4.378 -4.118,8.1 -7.804,11.168c-3.682,3.089 -8.257,5.196 -13.729,6.31l-2.25,-11.014c4.629,-0.946 8.004,-3.036 10.122,-6.268c2.093,-3.228 2.653,-7.218 1.686,-11.964zm-11.458,68.953l-12.7,2.593l-20.064,-98.214l12.7,-2.596l20.064,98.217z"/>
           <path id="svg_35" fill="white" d="m761.411,341.796c-2.365,-0.025 -4.347,-0.857 -5.95,-2.5c-1.582,-1.614 -2.361,-3.603 -2.34,-5.967c0.025,-2.386 0.847,-4.397 2.465,-6.025c1.639,-1.654 3.643,-2.468 6.003,-2.443c2.365,0.025 4.372,0.882 6.025,2.571c1.629,1.664 2.432,3.689 2.407,6.075c-0.025,2.364 -0.867,4.336 -2.532,5.918c-1.689,1.607 -3.714,2.396 -6.078,2.371z"/>
           <path id="svg_36" fill="white" d="m882.871,316.179l-42.371,-10.008l2.554,-10.803l42.367,10.011l-2.55,10.8zm-1.8,45.303l-12.578,-2.971l23.046,-97.561l12.579,2.968l-23.047,97.564zm-42.335,-10.003l-12.615,-2.979l23.047,-97.561l12.614,2.979l-23.046,97.561z"/>
           <path id="svg_37" fill="white" d="m940.864,388.182c-2.114,-1.053 -3.539,-2.668 -4.268,-4.839c-0.721,-2.143 -0.553,-4.275 0.5,-6.393c1.065,-2.136 2.679,-3.586 4.843,-4.346c2.197,-0.772 4.354,-0.633 6.468,0.417c2.114,1.054 3.55,2.7 4.3,4.94c0.743,2.207 0.579,4.382 -0.482,6.518c-1.054,2.114 -2.671,3.521 -4.857,4.221c-2.218,0.711 -4.386,0.539 -6.504,-0.518z"/>
           <path id="svg_38" fill="white" d="m1009.38,431.668l-10.409,-7.661l59.419,-80.736l10.41,7.665l-59.42,80.732z"/>
           <path id="svg_39" fill="white" d="m1058.5,479.236c-1.61,-1.732 -2.38,-3.743 -2.29,-6.036c0.09,-2.261 0.99,-4.193 2.73,-5.804c1.75,-1.625 3.77,-2.41 6.06,-2.36c2.33,0.053 4.3,0.943 5.9,2.675c1.61,1.732 2.37,3.778 2.29,6.139c-0.09,2.329 -1.01,4.304 -2.75,5.929c-1.74,1.607 -3.75,2.353 -6.04,2.235c-2.33,-0.118 -4.29,-1.046 -5.9,-2.778z"/>
           <path id="svg_40" fill="white" d="m1138.55,560.993l-18.13,-31.579l9.63,-5.525l18.12,31.579l-9.62,5.525zm56.46,-62.739l6.38,11.114l-99.12,28.689l-6.38,-11.114l99.12,-28.689zm0.14,0.246l6.38,11.118l-74.77,71.107l-6.31,-10.993l74.7,-71.232z"/>
           <path id="svg_41" fill="white" d="m1147.43,638.096c-0.71,-2.253 -0.54,-4.396 0.52,-6.435c1.04,-2.007 2.69,-3.368 4.94,-4.079c2.27,-0.718 4.44,-0.564 6.49,0.464c2.08,1.043 3.48,2.693 4.19,4.947c0.72,2.253 0.53,4.428 -0.56,6.525c-1.08,2.068 -2.75,3.461 -5.03,4.178c-2.25,0.711 -4.39,0.525 -6.41,-0.564c-2.05,-1.103 -3.43,-2.782 -4.14,-5.036z"/>
           <path id="svg_42" fill="white" d="m259.771,759.043c0,-21.604 17.511,-39.114 39.115,-39.114c21.603,0 39.114,17.51 39.114,39.114c0,21.603 -17.511,39.114 -39.114,39.114c-21.604,0 -39.115,-17.511 -39.115,-39.114z"/>
           <path id="svg_43" fill="white" d="m1162,759.043c0,-21.604 17.51,-39.114 39.11,-39.114c21.61,0 39.12,17.51 39.12,39.114c0,21.603 -17.51,39.114 -39.12,39.114c-21.6,0 -39.11,-17.511 -39.11,-39.114z"/>
          </g>
         </g>
        </g>
       </g>
      </g>
     </mask>
     <g id="svg_44" mask="url(#mask0_0_290)">
      <path id="svg_45" fill="black" d="m1250,247.4999l-1000,0l0,1000l1000,0l0,-1000z"/>
     </g>
     <mask height="1000" width="1000" y="250" x="250" maskUnits="userSpaceOnUse" id="mask1_0_290">
      <g id="svg_46" clip-path="url(#clip10_0_290)">
       <g id="svg_47" clip-path="url(#clip11_0_290)">
        <g id="svg_48" clip-path="url(#clip12_0_290)">
         <g id="svg_49" clip-path="url(#clip13_0_290)">
          <g id="svg_50" clip-path="url(#clip14_0_290)">
           <g id="svg_51" clip-path="url(#clip15_0_290)">
            <path id="svg_52" fill="white" d="m926.187,933.848l-352.374,0c-2.032,0 -3.98,-0.807 -5.417,-2.244c-1.437,-1.437 -2.244,-3.385 -2.244,-5.417c-0.036,-19.216 6.369,-37.89 18.191,-53.039c11.822,-15.15 28.38,-25.9 47.029,-30.535l58.694,-14.677l3.386,-13.528c-40.738,-6.818 -61.375,-19.013 -62.294,-19.549c-1.075,-0.647 -1.975,-1.547 -2.62,-2.622c-0.646,-1.076 -1.018,-2.293 -1.083,-3.546c-0.065,-1.252 0.179,-2.502 0.71,-3.638c0.53,-1.137 1.332,-2.125 2.334,-2.88c0.199,-0.153 27.577,-22.766 27.577,-101.116c0,-85.964 63.137,-114.905 91.924,-114.905c22.184,0 30.442,4.688 41.442,15.321l4.52,0c30.503,0 45.962,33.506 45.962,99.584c0,78.35 27.378,100.963 27.654,101.178c0.976,0.779 1.751,1.781 2.261,2.922c0.509,1.141 0.737,2.388 0.665,3.635c-0.077,1.241 -0.455,2.444 -1.1,3.507c-0.646,1.062 -1.541,1.951 -2.608,2.59c-0.919,0.552 -21.77,12.671 -62.247,19.488l3.385,13.559l58.694,14.677c18.644,4.633 35.198,15.379 47.02,30.522c11.822,15.144 18.229,33.811 18.2,53.022c0.004,1.008 -0.191,2.008 -0.575,2.941c-0.383,0.933 -0.946,1.781 -1.658,2.495c-0.712,0.715 -1.558,1.282 -2.489,1.669c-0.931,0.387 -1.93,0.586 -2.939,0.586zm-344.316,-15.321l336.242,0c-1.537,-14.405 -7.466,-27.989 -16.984,-38.91c-9.518,-10.921 -22.164,-18.652 -36.224,-22.143l-63.152,-15.78c-1.345,-0.339 -2.573,-1.037 -3.552,-2.019c-0.98,-0.982 -1.674,-2.212 -2.009,-3.558l-6.542,-26.167c-0.26,-1.041 -0.298,-2.125 -0.112,-3.182c0.186,-1.056 0.592,-2.062 1.192,-2.951c0.599,-0.89 1.379,-1.644 2.288,-2.213c0.909,-0.569 1.928,-0.941 2.99,-1.092c27.301,-3.83 46.192,-10.403 56.319,-14.677c-9.974,-13.329 -25.724,-44.001 -25.724,-104.778c0,-31.468 -3.983,-84.263 -30.641,-84.263l-7.66,0c-1.007,0.001 -2.004,-0.195 -2.935,-0.579c-0.93,-0.384 -1.776,-0.947 -2.489,-1.658c-9.928,-9.943 -13.972,-13.084 -32.878,-13.084c-15.198,0 -76.603,17.726 -76.603,99.584c0,60.838 -15.78,91.495 -25.754,104.809c10.066,4.274 28.879,10.862 56.334,14.677c1.063,0.148 2.084,0.519 2.995,1.087c0.911,0.569 1.692,1.322 2.293,2.212c0.601,0.89 1.008,1.896 1.195,2.954c0.187,1.057 0.15,2.142 -0.11,3.184l-6.542,26.137c-0.336,1.348 -1.033,2.579 -2.015,3.561c-0.983,0.983 -2.214,1.68 -3.561,2.016l-63.137,15.78c-14.057,3.499 -26.701,11.231 -36.22,22.15c-9.519,10.92 -15.455,24.5 -17.004,38.903z"/>
           </g>
          </g>
         </g>
        </g>
       </g>
      </g>
     </mask>
     <g id="svg_53" mask="url(#mask1_0_290)">
      <path id="svg_54" fill="black" d="m1250,247.4999l-1000,0l0,1000l1000,0l0,-1000z"/>
     </g>
    </g>
   </g>
  </g>
 </g>
</svg>