<svg width="1500" height="1500" viewBox="0 0 1500 1500" fill="none" xmlns="http://www.w3.org/2000/svg">
<g clip-path="url(#clip0_0_194)">
<path d="M1500 0H0V1500H1500V0Z" fill="black"/>
<g clip-path="url(#clip1_0_194)">
<g clip-path="url(#clip2_0_194)">
<mask id="mask0_0_194" style="mask-type:luminance" maskUnits="userSpaceOnUse" x="250" y="250" width="1000" height="1000">
<g clip-path="url(#clip3_0_194)">
<g clip-path="url(#clip4_0_194)">
<g clip-path="url(#clip5_0_194)">
<g clip-path="url(#clip6_0_194)">
<g clip-path="url(#clip7_0_194)">
<g clip-path="url(#clip8_0_194)">
<g clip-path="url(#clip9_0_194)">
<path d="M926.187 933.848H573.813C571.781 933.848 569.833 933.041 568.396 931.604C566.959 930.167 566.152 928.219 566.152 926.187C566.116 906.971 572.521 888.297 584.343 873.148C596.165 857.998 612.723 847.248 631.372 842.613L690.066 827.936L693.452 814.408C652.714 807.59 632.077 795.395 631.158 794.859C630.083 794.212 629.183 793.312 628.538 792.237C627.892 791.161 627.52 789.944 627.455 788.691C627.39 787.439 627.634 786.189 628.165 785.053C628.695 783.916 629.497 782.928 630.499 782.173C630.698 782.02 658.076 759.407 658.076 681.057C658.076 595.093 721.213 566.152 750 566.152C772.184 566.152 780.442 570.84 791.442 581.473H795.962C826.465 581.473 841.924 614.979 841.924 681.057C841.924 759.407 869.302 782.02 869.578 782.235C870.554 783.014 871.329 784.016 871.839 785.157C872.348 786.298 872.576 787.545 872.504 788.792C872.427 790.033 872.049 791.236 871.403 792.299C870.758 793.361 869.863 794.25 868.796 794.889C867.877 795.441 847.026 807.56 806.549 814.377L809.934 827.936L868.628 842.613C887.272 847.246 903.826 857.992 915.648 873.135C927.47 888.279 933.877 906.946 933.848 926.157C933.852 927.165 933.657 928.165 933.273 929.098C932.89 930.031 932.327 930.879 931.615 931.593C930.903 932.308 930.057 932.875 929.126 933.262C928.195 933.649 927.196 933.848 926.187 933.848ZM581.871 918.527H918.113C916.576 904.122 910.647 890.538 901.129 879.617C891.611 868.696 878.965 860.965 864.905 857.474L801.753 841.694C800.408 841.355 799.18 840.657 798.201 839.675C797.221 838.693 796.527 837.463 796.192 836.117L789.65 809.95C789.39 808.909 789.352 807.825 789.538 806.768C789.724 805.712 790.13 804.706 790.73 803.817C791.329 802.927 792.109 802.173 793.018 801.604C793.927 801.035 794.946 800.663 796.008 800.512C823.309 796.682 842.2 790.109 852.327 785.835C842.353 772.506 826.603 741.834 826.603 681.057C826.603 649.589 822.62 596.794 795.962 596.794H788.302C787.295 596.795 786.298 596.599 785.367 596.215C784.437 595.831 783.591 595.268 782.878 594.557C772.95 584.614 768.906 581.473 750 581.473C734.802 581.473 673.397 599.199 673.397 681.057C673.397 741.895 657.617 772.552 647.643 785.866C657.709 790.14 676.522 796.728 703.977 800.543C705.04 800.691 706.061 801.062 706.972 801.63C707.883 802.199 708.664 802.952 709.265 803.842C709.866 804.732 710.273 805.738 710.46 806.796C710.647 807.853 710.61 808.938 710.35 809.98L703.808 836.117C703.472 837.465 702.775 838.696 701.793 839.678C700.81 840.661 699.579 841.358 698.232 841.694L635.095 857.474C621.038 860.973 608.394 868.705 598.875 879.624C589.356 890.544 583.42 904.124 581.871 918.527Z" fill="black"/>
</g>
</g>
<path d="M352.961 636.743C352.318 639.018 350.996 640.714 348.993 641.836C347.018 642.939 344.896 643.171 342.618 642.529C340.321 641.879 338.596 640.561 337.45 638.575C336.282 636.557 336.021 634.414 336.664 632.139C337.307 629.864 338.661 628.154 340.721 626.996C342.754 625.861 344.918 625.614 347.214 626.264C349.489 626.907 351.171 628.239 352.264 630.261C353.371 632.311 353.604 634.471 352.961 636.743Z" fill="white"/>
<path d="M382.15 518.339L375.964 529.729C372.904 528.064 369.704 527.454 366.364 527.896C363.036 528.371 359.589 529.418 356.021 531.039C352.454 532.661 348.729 534.439 344.85 536.379C340.993 538.329 337.029 539.979 332.957 541.325C328.886 542.671 324.729 543.321 320.489 543.271C316.239 543.246 311.954 542.057 307.636 539.714L313.821 528.325C316.8 529.943 319.957 530.532 323.293 530.086C326.621 529.611 330.089 528.575 333.7 526.979C337.311 525.382 341.057 523.614 344.932 521.675C348.789 519.725 352.732 518.064 356.764 516.693C360.793 515.325 364.929 514.664 369.168 514.711C373.418 514.736 377.746 515.946 382.15 518.339ZM314.039 528.443L307.854 539.832C303.282 537.35 299.939 534.175 297.829 530.311C295.707 526.468 294.793 522.196 295.089 517.5C295.354 512.811 296.804 508.043 299.436 503.196L309.189 508.493C306.921 512.668 306.225 516.525 307.1 520.068C307.993 523.621 310.307 526.414 314.039 528.443ZM375.743 529.607L381.929 518.221C386.418 520.661 389.739 523.821 391.893 527.707C394.057 531.571 395.004 535.832 394.725 540.489C394.482 545.139 393.021 549.925 390.346 554.857L380.468 549.489C382.736 545.314 383.454 541.468 382.621 537.95C381.768 534.418 379.475 531.639 375.743 529.607ZM330.211 490.943L326.575 502.739C322.593 501.118 319.111 500.925 316.132 502.161C313.132 503.382 310.818 505.493 309.189 508.493L299.436 503.196C301.564 499.275 304.282 496.171 307.586 493.893C310.879 491.579 314.468 490.121 318.357 489.518C322.232 488.932 326.186 489.411 330.211 490.943ZM352.064 566.9L355.596 555.375C361.104 557.739 366.05 558.404 370.443 557.368C374.825 556.354 378.164 553.725 380.468 549.489L390.346 554.857C386.507 561.925 381.204 566.514 374.436 568.621C367.7 570.721 360.243 570.146 352.064 566.9Z" fill="white"/>
<path d="M440.336 480.525C438.796 482.318 436.879 483.296 434.589 483.468C432.336 483.636 430.311 482.95 428.521 481.411C426.711 479.854 425.704 477.932 425.496 475.646C425.289 473.325 425.954 471.271 427.496 469.479C429.036 467.686 430.986 466.704 433.343 466.529C435.664 466.354 437.732 467.046 439.539 468.6C441.332 470.139 442.296 472.057 442.436 474.35C442.575 476.675 441.875 478.732 440.336 480.525Z" fill="white"/>
<path d="M516.264 383.164L505.903 390.896L475.111 349.636L485.471 341.907L516.264 383.164ZM481.632 409.011L471.246 416.764L440.45 375.504L450.839 367.754L481.632 409.011ZM485.557 342.021L475.196 349.75C472.257 345.811 468.903 343.575 465.146 343.046C461.382 342.55 457.603 343.718 453.818 346.543L447.093 337.532C451.568 334.193 456.171 332.157 460.9 331.429C465.614 330.682 470.121 331.218 474.428 333.036C478.736 334.854 482.443 337.85 485.557 342.021ZM450.925 367.868L440.536 375.618C437.425 371.446 435.618 367.032 435.118 362.375C434.6 357.729 435.389 353.239 437.486 348.904C439.55 344.564 442.789 340.746 447.207 337.446L453.932 346.457C450.125 349.296 447.936 352.586 447.357 356.325C446.793 360.082 447.982 363.929 450.925 367.868ZM505.818 390.782L516.178 383.05C519.346 387.296 521.178 391.725 521.668 396.332C522.157 400.939 521.389 405.414 519.357 409.761C517.343 414.125 514.096 417.975 509.621 421.314L502.896 412.307C506.682 409.482 508.861 406.171 509.428 402.382C509.964 398.589 508.761 394.721 505.818 390.782ZM471.161 416.65L481.546 408.896C484.486 412.836 487.853 415.089 491.639 415.661C495.414 416.211 499.203 415.064 503.011 412.221L509.736 421.229C505.318 424.525 500.721 426.529 495.946 427.232C491.168 427.971 486.636 427.45 482.357 425.668C478.061 423.9 474.328 420.893 471.161 416.65Z" fill="white"/>
<path d="M588.536 374.357C586.375 375.314 584.225 375.379 582.082 374.554C579.971 373.739 578.439 372.254 577.482 370.093C576.514 367.911 576.429 365.743 577.225 363.589C578.032 361.404 579.514 359.832 581.675 358.875C583.836 357.918 586.018 357.864 588.221 358.714C590.393 359.554 591.964 361.064 592.932 363.246C593.889 365.407 593.939 367.55 593.082 369.679C592.211 371.839 590.696 373.4 588.536 374.357Z" fill="white"/>
<path d="M655.032 261.75L640.825 264.654L638.575 253.639L652.782 250.736L655.032 261.75ZM665.136 311.211L650.932 314.114L648.682 303.1L662.886 300.196L665.136 311.211ZM687.243 279.546L674.582 282.132L672.875 273.782L685.539 271.196L687.243 279.546ZM685.539 271.196L672.875 273.782C671.886 268.943 669.803 265.493 666.632 263.439C663.436 261.389 659.521 260.836 654.893 261.782L652.643 250.764C658.114 249.646 663.143 249.754 667.725 251.082C672.314 252.436 676.168 254.839 679.286 258.296C682.407 261.775 684.493 266.075 685.539 271.196ZM674.553 281.993L687.214 279.404C688.275 284.596 688.046 289.379 686.528 293.761C685.011 298.139 682.411 301.861 678.725 304.929C675.043 308.018 670.468 310.125 664.996 311.239L662.746 300.225C667.375 299.279 670.75 297.189 672.868 293.957C674.961 290.729 675.521 286.739 674.553 281.993ZM663.096 350.946L650.396 353.539L630.332 255.325L643.032 252.729L663.096 350.946Z" fill="white"/>
<path d="M761.411 341.796C759.046 341.771 757.064 340.939 755.461 339.296C753.878 337.682 753.1 335.693 753.121 333.329C753.146 330.943 753.968 328.932 755.586 327.304C757.225 325.65 759.228 324.836 761.589 324.861C763.953 324.886 765.961 325.743 767.614 327.432C769.243 329.096 770.046 331.121 770.021 333.507C769.996 335.871 769.153 337.843 767.489 339.425C765.8 341.032 763.775 341.821 761.411 341.796Z" fill="white"/>
<path d="M882.871 316.179L840.5 306.171L843.053 295.368L885.421 305.379L882.871 316.179ZM881.071 361.482L868.493 358.511L891.539 260.95L904.118 263.918L881.071 361.482ZM838.736 351.479L826.121 348.5L849.168 250.939L861.782 253.918L838.736 351.479Z" fill="white"/>
<path d="M940.864 388.182C938.75 387.129 937.325 385.514 936.596 383.343C935.875 381.2 936.043 379.068 937.096 376.95C938.161 374.814 939.775 373.364 941.939 372.604C944.136 371.832 946.293 371.971 948.407 373.021C950.521 374.075 951.957 375.721 952.707 377.961C953.45 380.168 953.286 382.343 952.225 384.479C951.171 386.593 949.554 388 947.368 388.7C945.15 389.411 942.982 389.239 940.864 388.182Z" fill="white"/>
<path d="M1009.38 431.668L998.971 424.007L1058.39 343.271L1068.8 350.936L1009.38 431.668Z" fill="white"/>
<path d="M1058.5 479.236C1056.89 477.504 1056.12 475.493 1056.21 473.2C1056.3 470.939 1057.2 469.007 1058.94 467.396C1060.69 465.771 1062.71 464.986 1065 465.036C1067.33 465.089 1069.3 465.979 1070.9 467.711C1072.51 469.443 1073.27 471.489 1073.19 473.85C1073.1 476.179 1072.18 478.154 1070.44 479.779C1068.7 481.386 1066.69 482.132 1064.4 482.014C1062.07 481.896 1060.11 480.968 1058.5 479.236Z" fill="white"/>
<path d="M1138.55 560.993L1120.42 529.414L1130.05 523.889L1148.17 555.468L1138.55 560.993ZM1195.01 498.254L1201.39 509.368L1102.27 538.057L1095.89 526.943L1195.01 498.254ZM1195.15 498.5L1201.53 509.618L1126.76 580.725L1120.45 569.732L1195.15 498.5Z" fill="white"/>
<path d="M1147.43 638.096C1146.72 635.843 1146.89 633.7 1147.95 631.661C1148.99 629.654 1150.64 628.293 1152.89 627.582C1155.16 626.864 1157.33 627.018 1159.38 628.046C1161.46 629.089 1162.86 630.739 1163.57 632.993C1164.29 635.246 1164.1 637.421 1163.01 639.518C1161.93 641.586 1160.26 642.979 1157.98 643.696C1155.73 644.407 1153.59 644.221 1151.57 643.132C1149.52 642.029 1148.14 640.35 1147.43 638.096Z" fill="white"/>
<path d="M259.771 759.043C259.771 737.439 277.282 719.929 298.886 719.929C320.489 719.929 338 737.439 338 759.043C338 780.646 320.489 798.157 298.886 798.157C277.282 798.157 259.771 780.646 259.771 759.043Z" fill="white"/>
<path d="M1162 759.043C1162 737.439 1179.51 719.929 1201.11 719.929C1222.72 719.929 1240.23 737.439 1240.23 759.043C1240.23 780.646 1222.72 798.157 1201.11 798.157C1179.51 798.157 1162 780.646 1162 759.043Z" fill="white"/>
</g>
</g>
</g>
</g>
</g>
</mask>
<g mask="url(#mask0_0_194)">
<path d="M1250 250H250V1250H1250V250Z" fill="white"/>
</g>
<mask id="mask1_0_194" style="mask-type:luminance" maskUnits="userSpaceOnUse" x="250" y="250" width="1000" height="1000">
<g clip-path="url(#clip10_0_194)">
<g clip-path="url(#clip11_0_194)">
<g clip-path="url(#clip12_0_194)">
<g clip-path="url(#clip13_0_194)">
<g clip-path="url(#clip14_0_194)">
<g clip-path="url(#clip15_0_194)">
<path d="M926.187 933.848H573.813C571.781 933.848 569.833 933.041 568.396 931.604C566.959 930.167 566.152 928.219 566.152 926.187C566.116 906.971 572.521 888.297 584.343 873.148C596.165 857.998 612.723 847.248 631.372 842.613L690.066 827.936L693.452 814.408C652.714 807.59 632.077 795.395 631.158 794.859C630.083 794.212 629.183 793.312 628.538 792.237C627.892 791.161 627.52 789.944 627.455 788.691C627.39 787.439 627.634 786.189 628.165 785.053C628.695 783.916 629.497 782.928 630.499 782.173C630.698 782.02 658.076 759.407 658.076 681.057C658.076 595.093 721.213 566.152 750 566.152C772.184 566.152 780.442 570.84 791.442 581.473H795.962C826.465 581.473 841.924 614.979 841.924 681.057C841.924 759.407 869.302 782.02 869.578 782.235C870.554 783.014 871.329 784.016 871.839 785.157C872.348 786.298 872.576 787.545 872.504 788.792C872.427 790.033 872.049 791.236 871.403 792.299C870.758 793.361 869.863 794.25 868.796 794.889C867.877 795.441 847.026 807.56 806.549 814.377L809.934 827.936L868.628 842.613C887.272 847.246 903.826 857.992 915.648 873.135C927.47 888.279 933.877 906.946 933.848 926.157C933.852 927.165 933.657 928.165 933.273 929.098C932.89 930.031 932.327 930.879 931.615 931.593C930.903 932.308 930.057 932.875 929.126 933.262C928.195 933.649 927.196 933.848 926.187 933.848ZM581.871 918.527H918.113C916.576 904.122 910.647 890.538 901.129 879.617C891.611 868.696 878.965 860.965 864.905 857.474L801.753 841.694C800.408 841.355 799.18 840.657 798.201 839.675C797.221 838.693 796.527 837.463 796.192 836.117L789.65 809.95C789.39 808.909 789.352 807.825 789.538 806.768C789.724 805.712 790.13 804.706 790.73 803.817C791.329 802.927 792.109 802.173 793.018 801.604C793.927 801.035 794.946 800.663 796.008 800.512C823.309 796.682 842.2 790.109 852.327 785.835C842.353 772.506 826.603 741.834 826.603 681.057C826.603 649.589 822.62 596.794 795.962 596.794H788.302C787.295 596.795 786.298 596.599 785.367 596.215C784.437 595.831 783.591 595.268 782.878 594.557C772.95 584.614 768.906 581.473 750 581.473C734.802 581.473 673.397 599.199 673.397 681.057C673.397 741.895 657.617 772.552 647.643 785.866C657.709 790.14 676.522 796.728 703.977 800.543C705.04 800.691 706.061 801.062 706.972 801.63C707.883 802.199 708.664 802.952 709.265 803.842C709.866 804.732 710.273 805.738 710.46 806.796C710.647 807.853 710.61 808.938 710.35 809.98L703.808 836.117C703.472 837.465 702.775 838.696 701.793 839.678C700.81 840.661 699.579 841.358 698.232 841.694L635.095 857.474C621.038 860.973 608.394 868.705 598.875 879.624C589.356 890.544 583.42 904.124 581.871 918.527Z" fill="white"/>
</g>
</g>
</g>
</g>
</g>
</g>
</mask>
<g mask="url(#mask1_0_194)">
<path d="M1250 250H250V1250H1250V250Z" fill="white"/>
</g>
</g>
</g>
</g>
<defs>
<clipPath id="clip0_0_194">
<rect width="1500" height="1500" fill="white"/>
</clipPath>
<clipPath id="clip1_0_194">
<rect width="1000" height="1000" fill="white" transform="translate(250 250)"/>
</clipPath>
<clipPath id="clip2_0_194">
<rect width="1000" height="1000" fill="white" transform="translate(250 250)"/>
</clipPath>
<clipPath id="clip3_0_194">
<rect width="1000" height="1000" fill="white" transform="translate(250 250)"/>
</clipPath>
<clipPath id="clip4_0_194">
<rect width="1000" height="1000" fill="white" transform="translate(250 250)"/>
</clipPath>
<clipPath id="clip5_0_194">
<rect width="1000" height="1000" fill="white" transform="translate(250 250)"/>
</clipPath>
<clipPath id="clip6_0_194">
<rect width="1000" height="1000" fill="white" transform="translate(250 250)"/>
</clipPath>
<clipPath id="clip7_0_194">
<rect width="1000" height="1000" fill="white" transform="translate(250 250)"/>
</clipPath>
<clipPath id="clip8_0_194">
<rect width="367.696" height="367.695" fill="white" transform="translate(566.152 566.152)"/>
</clipPath>
<clipPath id="clip9_0_194">
<rect width="367.696" height="367.695" fill="white" transform="translate(566.152 566.152)"/>
</clipPath>
<clipPath id="clip10_0_194">
<rect width="1000" height="1000" fill="white" transform="translate(250 250)"/>
</clipPath>
<clipPath id="clip11_0_194">
<rect width="1000" height="1000" fill="white" transform="translate(250 250)"/>
</clipPath>
<clipPath id="clip12_0_194">
<rect width="1000" height="1000" fill="white" transform="translate(250 250)"/>
</clipPath>
<clipPath id="clip13_0_194">
<rect width="1000" height="1000" fill="white" transform="translate(250 250)"/>
</clipPath>
<clipPath id="clip14_0_194">
<rect width="367.696" height="367.695" fill="white" transform="translate(566.152 566.152)"/>
</clipPath>
<clipPath id="clip15_0_194">
<rect width="367.696" height="367.695" fill="white" transform="translate(566.152 566.152)"/>
</clipPath>
</defs>
</svg>
